<svg xmlns="http://www.w3.org/2000/svg" version="1.1" xmlns:xlink="http://www.w3.org/1999/xlink" xmlns:svgjs="http://svgjs.dev/svgjs" width="1000" height="1000" viewBox="0 0 1000 1000"><rect width="1000" height="1000" fill="#000000"></rect><g transform="matrix(0.7,0,0,0.7,150.26973813529992,441.92691966666666)"><svg viewBox="0 0 270 45" data-background-color="#fafafa" preserveAspectRatio="xMidYMid meet" height="166" width="1000" xmlns="http://www.w3.org/2000/svg" xmlns:xlink="http://www.w3.org/1999/xlink"><g id="tight-bounds" transform="matrix(1,0,0,1,-0.10404185218709472,-0.010424999999997908)"><svg viewBox="0 0 270.2080799466511 45.020849999999996" height="45.020849999999996" width="270.2080799466511"><g><svg viewBox="0 0 270.2080799466511 45.020849999999996" height="45.020849999999996" width="270.2080799466511"><g><svg viewBox="0 0 270.2080799466511 45.020849999999996" height="45.020849999999996" width="270.2080799466511"><g id="textblocktransform"><svg viewBox="0 0 270.2080799466511 45.020849999999996" height="45.020849999999996" width="270.2080799466511" id="textblock"><g><svg viewBox="0 0 270.2080799466511 45.020849999999996" height="45.020849999999996" width="270.2080799466511"><g><svg><g></g><g></g></svg></g><g><svg><g><svg></svg></g><g></g></svg></g><g id="text-0"><svg viewBox="0 0 270.2080799466511 45.020849999999996" height="45.020849999999996" width="270.2080799466511"><g transform="matrix(1,0,0,1,0,3.960424999999997)"><svg width="43.744433593749996" viewBox="2.256521701812744 -37.099998474121094 43.74347686767578 37.099998474121094" height="37.1" data-palette-color="#130912"><path d="M2.75 0L2.75 0Q2.45 0 2.33-0.23 2.2-0.45 2.3-0.85L2.3-0.85 15.25-36.4Q15.4-36.75 15.6-36.93 15.8-37.1 16.25-37.1L16.25-37.1 20.15-37.1Q21.05-37.1 21.3-36.35L21.3-36.35 34.1-0.85Q34.2-0.55 34.08-0.28 33.95 0 33.6 0L33.6 0 30.05 0Q29.45 0 29.25-0.5L29.25-0.5 25.8-10.2Q25.7-10.4 25.6-10.5 25.5-10.6 25.2-10.6L25.2-10.6 10.65-10.6Q10.2-10.6 10.05-10.2L10.05-10.2 6.5-0.45Q6.45-0.25 6.28-0.13 6.1 0 5.75 0L5.75 0 2.75 0ZM11.8-14.4L23.9-14.4Q24.5-14.4 24.3-15.05L24.3-15.05 18.3-31.5Q18.1-31.95 17.93-31.95 17.75-31.95 17.6-31.5L17.6-31.5 11.5-14.95Q11.25-14.4 11.8-14.4L11.8-14.4ZM41.8-37.1L45.4-37.1Q46-37.1 46-36.45L46-36.45 46-0.85Q46-0.35 45.8-0.18 45.6 0 45.1 0L45.1 0 41.95 0Q41.5 0 41.35-0.15 41.2-0.3 41.2-0.7L41.2-0.7 41.2-36.4Q41.2-37.1 41.8-37.1L41.8-37.1Z" opacity="1" transform="matrix(1,0,0,1,0,0)" fill="#130912" class="undefined-p-0"></path></svg></g><g><svg xmlns="http://www.w3.org/2000/svg" viewBox="6.431641578674316 6.704641342163086 87.62094116210938 86.66156768798828" x="57.91663359374999" y="0" height="45.020849999999996" width="45.519246352901085" class="icon-s-0" data-fill-palette-color="accent" id="s-0"><g data-name="Isolation Mode" fill="#aaaaaa" data-fill-palette-color="accent"><path d="M43.365 86.326c-17.7 0-32.749-11.819-36.594-28.743-0.128-0.67-0.241-1.352-0.339-2.031A43.879 43.879 0 0 0 33.79 80.991a31.512 31.512 0 0 0 8.341 1.123c11.732 0 22.55-6.473 27.558-16.49 3.515-7.03 3.352-14.298-0.46-20.466C65.275 38.761 57.806 34.346 49.584 33.347a27.893 27.893 0 0 1 6.476-0.774c10.166 0 18.685 5.631 21.701 14.347a24.72 24.72 0 0 1-1.559 19.929C71.819 75.275 62.704 82.336 52.415 85.275A39.714 39.714 0 0 1 43.365 86.326Z" fill="#ffffff" data-fill-palette-color="accent"></path><path d="M47.439 93.366a33.14 33.14 0 0 1-7.655-0.895c-0.246-0.061-0.493-0.123-0.738-0.189q1.361 0.076 2.703 0.075A41.043 41.043 0 0 0 74.525 76.959C84.558 64.061 85.029 48.87 75.771 37.296c-4.854-6.311-11.507-9.794-18.722-9.794-8.878 0-17.288 5.062-22.222 13.142a17.095 17.095 0 0 1 4.178-11.087A23.921 23.921 0 0 1 56.608 21.551q0.497 0 0.988 0.024A30.687 30.687 0 0 1 80.271 33.44a31.27 31.27 0 0 1 6.127 25.346C83.163 78.191 66.054 93.366 47.439 93.366Z" fill="#ffffff" data-fill-palette-color="accent"></path><path d="M86.492 75.297c3.688-8.609 4.364-18.014 4.364-23.748C89.633 33.166 74.039 18.265 56.094 18.265c-0.74 0-1.491 0.025-2.232 0.075a22.847 22.847 0 0 0-19.621 12.583c-4.272 8.203-4.298 18.913-0.29 27.713a18.646 18.646 0 0 1-6.395-9.417 27.473 27.473 0 0 1 2.468-20.724A28.609 28.609 0 0 1 55.588 13.984a38.241 38.241 0 0 1 28.554 13.437A50.37 50.37 0 0 1 93.678 49.975a30.81 30.81 0 0 1-5.772 23.256C87.457 73.927 86.982 74.618 86.492 75.297Z" fill="#ffffff" data-fill-palette-color="accent"></path><path d="M42.874 68.202a35.189 35.189 0 0 1-9.657-1.488A25.539 25.539 0 0 1 19.495 51.031a31.194 31.194 0 0 1 3.086-24.995c6.563-10.939 18.028-17.989 31.447-19.331C67.968 6.709 79.124 11.838 85.458 21.175c-8.388-7.1-18.549-11.166-28.443-11.167A33.77 33.77 0 0 0 35.966 17.312c-7.849 5.886-12.601 14.378-13.022 23.286a27.152 27.152 0 0 0 9.25 21.602 20.25 20.25 0 0 0 13.52 4.768 34.688 34.688 0 0 0 6.291-0.636A21.851 21.851 0 0 1 42.874 68.202Z" fill="#ffffff" data-fill-palette-color="accent"></path><path d="M43.31 78.094c-11.702 0-22.481-7.02-28.131-18.321C7.96 44.133 10.414 21.092 26.989 11.19q0.453-0.283 0.918-0.557C16.749 20.997 11.633 37.238 15.8 51.823c4.085 10.902 14.613 19.317 25.629 20.542 0.683 0.053 1.337 0.078 1.978 0.078a22.195 22.195 0 0 0 18.079-8.966 23.951 23.951 0 0 0 4.344-17.326 20.262 20.262 0 0 1 1.415 15.844A21.248 21.248 0 0 1 52.447 76.596 28.848 28.848 0 0 1 43.31 78.094Z" fill="#ffffff" data-fill-palette-color="accent"></path></g></svg></g><g transform="matrix(1,0,0,1,117.60807994665109,3.960424999999997)"><svg width="152.60000000000002" viewBox="4.849999904632568 -37.099998474121094 152.58999633789062 37.099998474121094" height="37.1" data-palette-color="#130912"><path d="M5.55 0L5.55 0Q4.85 0 4.85-0.75L4.85-0.75 4.85-36.4Q4.85-37.1 5.45-37.1L5.45-37.1 10.25-37.1Q10.65-37.1 10.83-37 11-36.9 11.1-36.55L11.1-36.55 22.2-7.9Q22.4-7.45 22.6-7.48 22.8-7.5 23-7.95L23-7.95 34.1-36.45Q34.3-37.1 34.85-37.1L34.85-37.1 39.9-37.1Q40.45-37.1 40.45-36.45L40.45-36.45 40.45-0.75Q40.45 0 39.7 0L39.7 0 36.4 0Q36 0 35.83-0.15 35.65-0.3 35.65-0.65L35.65-0.65 35.65-29.25Q35.65-29.5 35.55-29.48 35.45-29.45 35.4-29.25L35.4-29.25 24.4-0.65Q24.15 0 23.45 0L23.45 0 21.05 0Q20.25 0 20.05-0.6L20.05-0.6 9.2-28.95Q9.1-29.2 9.03-29.18 8.95-29.15 8.95-28.95L8.95-28.95 8.95-0.65Q8.95-0.3 8.8-0.15 8.65 0 8.25 0L8.25 0 5.55 0ZM50.75-37.1L54.35-37.1Q54.95-37.1 54.95-36.45L54.95-36.45 54.95-0.85Q54.95-0.35 54.75-0.18 54.55 0 54.05 0L54.05 0 50.9 0Q50.45 0 50.3-0.15 50.15-0.3 50.15-0.7L50.15-0.7 50.15-36.4Q50.15-37.1 50.75-37.1L50.75-37.1ZM91.7-1.05L91.7-1.05Q92.15-0.45 91.97-0.23 91.8 0 91.35 0L91.35 0 87.55 0Q87 0 86.75-0.4L86.75-0.4 77.25-14.7Q76.95-15.2 76.72-15.2 76.5-15.2 76.1-14.6L76.1-14.6 66.75-0.4Q66.65-0.2 66.4-0.1 66.15 0 65.9 0L65.9 0 62.6 0Q62.2 0 62.05-0.23 61.9-0.45 62.35-1.05L62.35-1.05 73.8-18.3Q74.05-18.65 74.02-18.93 74-19.2 73.75-19.55L73.75-19.55 62.6-36.35Q62.45-36.55 62.5-36.83 62.55-37.1 62.9-37.1L62.9-37.1 66.95-37.1Q67.35-37.1 67.52-37 67.7-36.9 67.8-36.65L67.8-36.65 76.55-23.3Q76.8-22.95 77.02-22.95 77.25-22.95 77.5-23.3L77.5-23.3 86.25-36.65Q86.4-36.9 86.57-37 86.75-37.1 87.05-37.1L87.05-37.1 90.7-37.1Q91.05-37.1 91.07-36.88 91.1-36.65 90.95-36.45L90.95-36.45 79.85-19.9Q79.65-19.6 79.65-19.38 79.65-19.15 79.85-18.8L79.85-18.8 91.7-1.05ZM99.04-36.4L99.04-36.4Q99.04-37.1 99.64-37.1L99.64-37.1 122.09-37.1Q122.59-37.1 122.59-36.55L122.59-36.55 122.59-34Q122.59-33.4 121.94-33.4L121.94-33.4 104.49-33.4Q103.84-33.4 103.84-32.8L103.84-32.8 103.84-21.1Q103.84-20.55 104.39-20.55L104.39-20.55 117.34-20.55Q117.89-20.55 117.89-20L117.89-20 117.89-17.35Q117.89-17.15 117.79-17.03 117.69-16.9 117.34-16.9L117.34-16.9 104.39-16.9Q103.84-16.9 103.84-16.35L103.84-16.35 103.84-4.2Q103.84-3.7 104.34-3.7L104.34-3.7 122.69-3.7Q123.24-3.7 123.24-3.2L123.24-3.2 123.24-0.55Q123.24-0.3 123.12-0.15 122.99 0 122.69 0L122.69 0 99.74 0Q99.04 0 99.04-0.7L99.04-0.7 99.04-36.4ZM156.94-0.95L156.94-0.95Q157.09-0.6 156.92-0.3 156.74 0 156.39 0L156.39 0 152.74 0Q152.19 0 151.94-0.6L151.94-0.6 145.49-16.35Q145.24-16.9 144.29-16.9L144.29-16.9 135.84-16.9Q135.49-16.9 135.37-16.75 135.24-16.6 135.24-16.35L135.24-16.35 135.24-0.8Q135.24 0 134.39 0L134.39 0 131.14 0Q130.74 0 130.59-0.18 130.44-0.35 130.44-0.65L130.44-0.65 130.44-36.4Q130.44-37.1 131.04-37.1L131.04-37.1 144.99-37.1Q150.89-37.1 154.17-34.68 157.44-32.25 157.44-27.5L157.44-27.5Q157.44-24.65 156.34-22.68 155.24-20.7 153.57-19.53 151.89-18.35 150.14-17.8L150.14-17.8Q149.74-17.75 149.94-17.3L149.94-17.3 156.94-0.95ZM143.59-20.4L143.59-20.4Q147.99-20.4 150.22-22 152.44-23.6 152.44-27.05L152.44-27.05Q152.44-30.4 150.47-32 148.49-33.6 144.74-33.6L144.74-33.6 135.94-33.6Q135.24-33.6 135.24-33.05L135.24-33.05 135.24-21.05Q135.24-20.4 135.69-20.4L135.69-20.4 143.59-20.4Z" opacity="1" transform="matrix(1,0,0,1,0,0)" fill="#130912" class="undefined-p-1"></path></svg></g></svg></g></svg></g></svg></g></svg></g><g></g></svg></g><defs></defs></svg><rect width="270.2080799466511" height="45.020849999999996" fill="none" stroke="none" visibility="hidden"></rect></g></svg></g></svg>